<?xml version="1.0" encoding="utf-8"?>
<!-- Generator: Adobe Illustrator 18.1.1, SVG Export Plug-In . SVG Version: 6.00 Build 0)  -->
<!DOCTYPE svg PUBLIC "-//W3C//DTD SVG 1.1//EN" "http://www.w3.org/Graphics/SVG/1.1/DTD/svg11.dtd">
<svg version="1.1" id="レイヤー_1" xmlns="http://www.w3.org/2000/svg" xmlns:xlink="http://www.w3.org/1999/xlink" x="0px"
	 y="0px" viewBox="0 0 480 480" enable-background="new 0 0 480 480" xml:space="preserve">
<g>
	<rect y="-0.2" fill="#999999" width="480.2" height="480.2"/>
	<g opacity="0.4">
		<g>
			<path fill="none" d="M274.7,137.4c0,4.8,9.2,8.9,22.2,10.5c3.4-1.2,7-2.4,10.7-3.4c13.7-3.7,26.4-4.7,34.8-3.4
				c1.3-1.2,2-2.4,2-3.8c0-1.5-0.9-3-2.6-4.3c-8.4,1.2-20.8,0.1-34.2-3.5c-3.3-0.9-6.4-1.8-9.4-2.9
				C284.6,128.2,274.7,132.4,274.7,137.4z"/>
			<path fill="none" d="M336.9,130.4c-6.4-2.6-16.2-4.3-27.3-4.3c-1.6,0-3.1,0-4.6,0.1c1.4,0.4,2.9,0.9,4.4,1.3
				C320,130.3,330,131.3,336.9,130.4z"/>
			<path fill="none" d="M336.9,144.4c-6.8-0.9-16.8,0.1-27.5,2.9c-1.5,0.4-3,0.8-4.4,1.3c1.5,0.1,3,0.1,4.5,0.1
				C320.7,148.7,330.6,147,336.9,144.4z"/>
			<path fill="none" d="M434,124.9c0.4,1.5,1.7,2.6,3.7,3.5c7.8-3.3,20.1-5.5,33.9-5.5c3.4,0,6.6,0.1,9.8,0.4
				c12.8-5,21.2-11.6,20-16.4c-1.2-4.6-11.2-6.2-24.1-4.4c-2.9,2.1-6.1,4.1-9.5,6c-12.3,7.1-24.2,11.4-32.7,12.3
				C434,122.3,433.7,123.7,434,124.9z"/>
			<path fill="none" d="M464.7,105c-10.7,2.9-19.8,7.1-25.3,11.3c6.8-0.9,16.2-4.4,25.8-9.9c1.3-0.8,2.6-1.6,3.9-2.4
				C467.7,104.3,466.2,104.6,464.7,105z"/>
			<path fill="none" d="M382.7,84c0.9-6.8-0.1-16.8-2.9-27.5c-0.4-1.5-0.8-3-1.3-4.4c-0.1,1.5-0.1,3-0.1,4.5
				C378.4,67.7,380.1,77.6,382.7,84z"/>
			<path fill="none" d="M346,149.2c-0.4-1.5-1.7-2.6-3.7-3.5c-7.8,3.3-20.1,5.5-33.9,5.5c-3.4,0-6.6-0.1-9.8-0.4
				c-12.8,5-21.2,11.6-20,16.4c1.2,4.6,11.2,6.2,24.1,4.4c2.9-2.1,6.1-4.1,9.5-6c12.3-7.1,24.2-11.4,32.7-12.3
				C346,151.9,346.4,150.5,346,149.2z"/>
			<path fill="none" d="M315.3,169.1c10.7-2.9,19.8-7.1,25.3-11.3c-6.8,0.9-16.2,4.4-25.8,9.9c-1.3,0.8-2.6,1.6-3.9,2.4
				C312.4,169.9,313.8,169.5,315.3,169.1z"/>
			<path fill="none" d="M278.6,107.5c-1.2,4.6,6.6,11,18.7,15.9c3.6-0.3,7.3-0.5,11.2-0.5c14.1,0,26.7,2.3,34.5,5.7
				c1.5-0.8,2.6-1.8,2.9-3.1c0.4-1.5-0.1-3.1-1.4-4.9c-8.5-1-20.1-5.3-32.1-12.2c-2.9-1.7-5.7-3.4-8.3-5.2
				C290.4,101.2,279.8,102.8,278.6,107.5z"/>
			<path fill="none" d="M429.3,153.3c-1.7-2.2-2.4-4.3-1.9-6.2c0.5-1.9,2.2-3.4,4.8-4.5c-2.2-1.7-3.4-3.6-3.4-5.5
				c0-2,1.2-3.8,3.4-5.5c-2.6-1.1-4.2-2.6-4.8-4.5c-0.5-1.9,0.2-4,1.9-6.2c-2.8-0.4-4.8-1.4-5.8-3.1c-1-1.7-0.9-3.9,0.2-6.5
				c-2.8,0.4-5-0.1-6.4-1.5c-1.4-1.4-1.8-3.6-1.5-6.4c-2.6,1.1-4.8,1.2-6.5,0.2c-1.7-1-2.7-3-3.1-5.8c-2.2,1.7-4.3,2.4-6.2,1.9
				c-1.9-0.5-3.4-2.2-4.5-4.8c-1.7,2.2-3.6,3.4-5.5,3.4s-3.8-1.2-5.5-3.4c-1.1,2.6-2.6,4.2-4.5,4.8c-1.9,0.5-4-0.2-6.2-1.9
				c-0.4,2.8-1.4,4.8-3.1,5.8c-1.7,1-3.9,0.9-6.5-0.2c0.4,2.8-0.1,5-1.5,6.4c-1.4,1.4-3.6,1.8-6.4,1.5c1.1,2.6,1.2,4.8,0.2,6.5
				c-1,1.7-3,2.7-5.8,3.1c1.7,2.2,2.4,4.3,1.9,6.2c-0.5,1.9-2.2,3.4-4.8,4.5c2.2,1.7,3.4,3.6,3.4,5.5c0,2-1.2,3.8-3.4,5.5
				c2.6,1.1,4.2,2.6,4.8,4.5c0.5,1.9-0.2,4-1.9,6.2c2.8,0.4,4.8,1.4,5.8,3.1c1,1.7,0.9,3.9-0.2,6.5c2.8-0.4,5,0.1,6.4,1.5
				c1.4,1.4,1.8,3.6,1.5,6.4c2.6-1.1,4.8-1.2,6.5-0.2c1.7,1,2.7,3,3.1,5.8c2.2-1.7,4.3-2.4,6.2-1.9c1.9,0.5,3.4,2.2,4.5,4.8
				c1.7-2.2,3.6-3.4,5.5-3.4s3.8,1.2,5.5,3.4c1.1-2.6,2.6-4.2,4.5-4.8c1.9-0.5,4,0.2,6.2,1.9c0.4-2.8,1.4-4.8,3.1-5.8
				c1.7-1,3.9-0.9,6.5,0.2c-0.4-2.8,0.1-5,1.5-6.4c1.4-1.4,3.6-1.8,6.4-1.5c-1.1-2.6-1.2-4.8-0.2-6.5
				C424.5,154.7,426.5,153.7,429.3,153.3z"/>
			<path fill="none" d="M422.4,94.4c5.4-4.2,11.8-11.9,17.4-21.5c0.8-1.3,1.5-2.7,2.2-4c-1.1,1-2.2,2-3.3,3.1
				C430.9,79.8,425.1,88,422.4,94.4z"/>
			<path fill="none" d="M410.3,87.4c4.2-5.5,8.3-14.6,11.2-25.3c0.4-1.5,0.8-3,1.1-4.5c-0.8,1.2-1.6,2.5-2.3,3.8
				C414.6,71.2,411.2,80.6,410.3,87.4z"/>
			<path fill="none" d="M432.4,104.2c6.4-2.7,14.5-8.4,22.3-16.3c1.1-1.1,2.1-2.2,3.2-3.3c-1.3,0.7-2.6,1.4-3.9,2.2
				C444.3,92.3,436.6,98.7,432.4,104.2z"/>
			<path fill="none" d="M396.7,83.9c2.6-6.4,4.3-16.2,4.3-27.3c0-1.6,0-3.1-0.1-4.6c-0.4,1.4-0.9,2.9-1.3,4.4
				C396.8,67.1,395.8,77.1,396.7,83.9z"/>
			<path fill="none" d="M481.8,99c8-1,15-0.9,20.1,0.3c0.5-3.8,2-7.5,4.5-10.5c-3.8-0.4-7.5-1.9-10.5-4.2
				C493.1,89,488.2,94.1,481.8,99z"/>
			<path fill="none" d="M465.2,81.1c-2.3,2.8-4.8,5.5-7.6,8.3c-10,10-20.4,17.2-28.4,20.3c-0.5,1.7-0.5,3.1,0.1,4.3
				c0.8,1.3,2.3,2.1,4.5,2.4c6.7-5.3,18-10.5,31.3-14.1c3.2-0.9,6.4-1.6,9.5-2.2c11.1-8.2,17.5-16.7,15-21
				C487.3,75,477.3,76.1,465.2,81.1z"/>
			<path fill="none" d="M505.3,136.7c0-4.8-9.2-8.9-22.2-10.5c-3.4,1.2-7,2.4-10.7,3.4c-13.7,3.7-26.4,4.7-34.8,3.4
				c-1.3,1.2-2,2.4-2,3.8c0,1.5,0.9,3,2.6,4.3c8.4-1.2,20.8-0.1,34.2,3.5c3.3,0.9,6.4,1.8,9.4,2.9
				C495.5,145.9,505.3,141.7,505.3,136.7z"/>
			<path fill="none" d="M443.2,143.8c6.4,2.6,16.2,4.3,27.3,4.3c1.6,0,3.1,0,4.6-0.1c-1.4-0.4-2.9-0.9-4.4-1.3
				C460,143.8,450,142.9,443.2,143.8z"/>
			<path fill="none" d="M443.1,129.8c6.8,0.9,16.8-0.1,27.5-2.9c1.5-0.4,3-0.8,4.4-1.3c-1.5-0.1-3-0.1-4.5-0.1
				C459.4,125.4,449.5,127.1,443.1,129.8z"/>
			<path fill="none" d="M340.4,116.8c-5.5-4.2-14.6-8.3-25.3-11.2c-1.5-0.4-3-0.8-4.5-1.1c1.2,0.8,2.5,1.6,3.8,2.3
				C324.2,112.5,333.6,115.9,340.4,116.8z"/>
			<path fill="none" d="M352.9,223.1c0.6-3.5,1.4-7.2,2.4-11c3.7-13.7,9.1-25.2,14.5-31.8c-0.4-1.7-1.1-3-2.2-3.6
				c-1.3-0.8-3.1-0.7-5.1,0.1c-3.2,7.9-10.3,18.1-20.1,27.8c-2.4,2.4-4.8,4.6-7.2,6.6c-5.5,12.6-6.8,23.3-2.5,25.7
				C336.8,239.5,344.9,233.6,352.9,223.1z"/>
			<path fill="none" d="M376.4,229.9c-0.3-3.6-0.5-7.3-0.5-11.2c0-14.1,2.3-26.7,5.7-34.5c-0.8-1.5-1.8-2.6-3.1-2.9
				c-1.5-0.4-3.1,0.1-4.9,1.4c-1,8.5-5.3,20.1-12.2,32.1c-1.7,2.9-3.4,5.7-5.2,8.3c-2.1,13.6-0.6,24.2,4.2,25.5
				C365.1,249.8,371.5,242,376.4,229.9z"/>
			<path fill="none" d="M331.8,210.6c1.5-3.3,3.2-6.6,5.2-10c7.1-12.2,15.3-22,22.2-27c0.1-1.7-0.3-3.2-1.2-4.1
				c-1.1-1.1-2.8-1.4-4.9-1.2c-5.1,6.8-14.7,14.8-26.6,21.7c-2.9,1.7-5.8,3.2-8.7,4.6c-8.6,10.8-12.6,20.7-9.1,24.2
				C312.1,222.2,321.5,218.6,331.8,210.6z"/>
			<path fill="none" d="M397.5,219.5c-3.7-13.7-4.7-26.4-3.4-34.8c-1.2-1.3-2.4-2-3.8-2c-1.5,0-3,0.9-4.3,2.6
				c1.2,8.4,0.1,20.8-3.5,34.2c-0.9,3.3-1.8,6.4-2.9,9.4c1.5,13.7,5.7,23.5,10.7,23.5c4.8,0,8.9-9.2,10.5-22.2
				C399.6,226.8,398.5,223.3,397.5,219.5z"/>
			<path fill="none" d="M437.7,204.7c-10-10-17.2-20.4-20.3-28.4c-1.7-0.5-3.1-0.5-4.3,0.1c-1.3,0.8-2.1,2.3-2.4,4.5
				c5.3,6.7,10.5,18,14.1,31.3c0.9,3.2,1.6,6.4,2.2,9.5c8.2,11.1,16.7,17.5,21,15c4.2-2.4,3.1-12.4-2-24.5
				C443.2,210,440.4,207.5,437.7,204.7z"/>
			<path fill="none" d="M453.6,190.1c-12.2-7.1-22-15.3-27-22.2c-1.7-0.1-3.2,0.3-4.1,1.2c-1.1,1.1-1.4,2.8-1.2,4.9
				c6.8,5.1,14.8,14.7,21.7,26.6c1.7,2.9,3.2,5.8,4.6,8.7c10.8,8.6,20.7,12.6,24.2,9.1c3.4-3.4-0.2-12.8-8.2-23.1
				C460.3,193.7,457,192,453.6,190.1z"/>
			<path fill="none" d="M439.7,157.3c5.5,4.2,14.6,8.3,25.3,11.2c1.5,0.4,3,0.8,4.5,1.1c-1.2-0.8-2.5-1.6-3.8-2.3
				C455.9,161.7,446.5,158.2,439.7,157.3z"/>
			<path fill="none" d="M406.3,182c-1.5-0.9-2.9-1.3-4.2-0.9c-1.5,0.4-2.6,1.7-3.5,3.7c3.3,7.8,5.5,20.1,5.5,33.9
				c0,3.4-0.1,6.6-0.4,9.8c5,12.8,11.6,21.2,16.4,20c4.6-1.2,6.2-11.2,4.4-24.1c-2.1-2.9-4.1-6.1-6-9.5
				C411.5,202.5,407.2,190.5,406.3,182z"/>
			<path fill="none" d="M326.5,84.1c12.2,7.1,22,15.3,27,22.2c1.7,0.1,3.2-0.3,4.1-1.2c1.1-1.1,1.4-2.8,1.2-4.9
				c-6.8-5.1-14.8-14.7-21.7-26.6c-1.7-2.9-3.2-5.8-4.6-8.7c-10.8-8.6-20.7-12.6-24.2-9.1c-3.4,3.4,0.2,12.8,8.2,23.1
				C319.8,80.4,323.1,82.1,326.5,84.1z"/>
			<path fill="none" d="M427.2,51c-0.6,3.5-1.4,7.2-2.4,11c-3.7,13.7-9.1,25.2-14.5,31.8c0.4,1.7,1.1,3,2.2,3.6
				c1.3,0.8,3.1,0.7,5.1-0.1c3.2-7.9,10.3-18.1,20.1-27.8c2.4-2.4,4.8-4.6,7.2-6.6c5.5-12.6,6.8-23.3,2.5-25.7
				C443.3,34.7,435.1,40.6,427.2,51z"/>
			<path fill="none" d="M505.8,113.8c-3.8,3.5-9.8,7.1-17.3,10.3c8,1.1,14.8,3.1,19.3,5.5c1.4-3.6,3.9-6.7,7-8.9
				C511.3,119.2,508.1,116.9,505.8,113.8z"/>
			<path fill="none" d="M448.2,63.6c-1.5,3.3-3.2,6.6-5.2,10c-7.1,12.2-15.3,22-22.2,27c-0.1,1.7,0.3,3.2,1.2,4.1
				c1.1,1.1,2.8,1.4,4.9,1.2c5.1-6.8,14.7-14.8,26.6-21.7c2.9-1.7,5.8-3.2,8.7-4.6c8.6-10.8,12.6-20.7,9.1-24.2
				C467.9,51.9,458.6,55.5,448.2,63.6z"/>
			<path fill="none" d="M501.5,166.6c1.2-4.6-6.6-11-18.7-15.9c-3.6,0.3-7.3,0.5-11.2,0.5c-14.1,0-26.7-2.3-34.5-5.7
				c-1.5,0.8-2.6,1.8-2.9,3.1c-0.4,1.5,0.1,3.1,1.4,4.9c8.5,1,20.1,5.3,32.1,12.2c2.9,1.7,5.7,3.4,8.3,5.2
				C489.6,172.9,500.2,171.4,501.5,166.6z"/>
			<path fill="none" d="M342.4,69.4c10,10,17.2,20.4,20.3,28.4c1.7,0.5,3.1,0.5,4.3-0.1c1.3-0.8,2.1-2.3,2.4-4.5
				c-5.3-6.7-10.5-18-14.1-31.3c-0.9-3.2-1.6-6.4-2.2-9.5c-8.2-11.1-16.7-17.5-21-15c-4.2,2.4-3.1,12.4,2,24.5
				C336.8,64.2,339.6,66.7,342.4,69.4z"/>
			<path fill="none" d="M373.8,92.1c1.5,0.9,2.9,1.3,4.2,0.9c1.5-0.4,2.6-1.7,3.5-3.7c-3.3-7.8-5.5-20.1-5.5-33.9
				c0-3.4,0.1-6.6,0.4-9.8c-5-12.8-11.6-21.2-16.4-20c-4.6,1.2-6.2,11.2-4.4,24.1c2.1,2.9,4.1,6.1,6,9.5
				C368.6,71.6,372.9,83.6,373.8,92.1z"/>
			<path fill="none" d="M382.6,54.6c3.7,13.7,4.7,26.4,3.4,34.8c1.2,1.3,2.4,2,3.8,2c1.5,0,3-0.9,4.3-2.6
				c-1.2-8.4-0.1-20.8,3.5-34.2c0.9-3.3,1.8-6.4,2.9-9.4c-1.5-13.7-5.7-23.5-10.7-23.5c-4.8,0-8.9,9.2-10.5,22.2
				C380.4,47.3,381.6,50.9,382.6,54.6z"/>
			<path fill="none" d="M403.7,44.3c0.3,3.6,0.5,7.3,0.5,11.2c0,14.1-2.3,26.7-5.7,34.5c0.8,1.5,1.8,2.6,3.1,2.9
				c1.5,0.4,3.1-0.1,4.9-1.4c1-8.5,5.3-20.1,12.2-32.1c1.7-2.9,3.4-5.7,5.2-8.3c2.1-13.6,0.6-24.2-4.2-25.5
				C414.9,24.4,408.6,32.2,403.7,44.3z"/>
			<path fill="none" d="M369.8,186.7c-4.2,5.5-8.3,14.6-11.2,25.3c-0.4,1.5-0.8,3-1.1,4.5c0.8-1.2,1.6-2.5,2.3-3.8
				C365.4,202.9,368.9,193.5,369.8,186.7z"/>
			<path fill="none" d="M312,48.5c5,1.5,11.1,4.9,17.6,9.8c-3-7.5-4.7-14.3-4.9-19.5c-3.8,0.5-7.7,0-11.3-1.6
				C314,41,313.5,44.9,312,48.5z"/>
			<path fill="none" d="M337.6,31.3c4.4,2.8,9.4,7.6,14.4,14c-1-8-0.9-15,0.3-20.1c-3.8-0.5-7.5-2-10.5-4.5
				C341.4,24.5,340,28.2,337.6,31.3z"/>
			<path fill="none" d="M291.7,71.7c5.2,0.2,12,1.9,19.5,4.9c-4.9-6.5-8.3-12.6-9.8-17.6c-3.6,1.5-7.5,2-11.3,1.4
				C291.7,63.9,292.2,67.8,291.7,71.7z"/>
			<path fill="none" d="M311.2,197.6c-7.5,3-14.3,4.7-19.5,4.9c0.5,3.8,0,7.7-1.6,11.3c3.8-0.6,7.7-0.1,11.3,1.4
				C302.9,210.2,306.3,204,311.2,197.6z"/>
			<path fill="none" d="M403,38.6c3.2-7.4,6.8-13.5,10.3-17.3c-3.1-2.3-5.4-5.5-6.8-9.1c-2.3,3.1-5.4,5.6-8.9,7
				C399.9,23.8,401.9,30.5,403,38.6z"/>
			<path fill="none" d="M468.9,76.6c7.5-3,14.3-4.7,19.5-4.9c-0.5-3.8,0-7.7,1.6-11.3c-3.8,0.6-7.7,0.1-11.3-1.4
				C477.1,64,473.7,70.1,468.9,76.6z"/>
			<path fill="none" d="M450.5,58.2c6.5-4.9,12.6-8.3,17.6-9.8c-1.5-3.6-2-7.5-1.4-11.3c-3.5,1.6-7.4,2.1-11.3,1.6
				C455.2,43.9,453.5,50.7,450.5,58.2z"/>
			<path fill="none" d="M428.1,45.3c5-6.4,10-11.2,14.4-14c-2.4-3-3.8-6.7-4.2-10.5c-3,2.4-6.6,4-10.5,4.5
				C428.9,30.2,429,37.2,428.1,45.3z"/>
			<path fill="none" d="M329.5,215.9c-6.5,4.9-12.6,8.3-17.6,9.8c1.5,3.6,2,7.5,1.4,11.3c3.5-1.6,7.4-2.1,11.3-1.6
				C324.8,230.2,326.5,223.4,329.5,215.9z"/>
			<path fill="none" d="M352,228.9c-5,6.4-10,11.2-14.4,14c2.4,3,3.8,6.7,4.2,10.5c3-2.4,6.6-4,10.5-4.5
				C351.1,243.9,351,236.9,352,228.9z"/>
			<path fill="none" d="M507.9,144.6c-4.6,2.4-11.3,4.3-19.3,5.5c7.4,3.2,13.5,6.8,17.3,10.3c2.3-3.1,5.5-5.4,9.1-6.8
				C511.8,151.2,509.3,148.2,507.9,144.6z"/>
			<path fill="none" d="M468.1,225.7c-5-1.5-11.1-4.9-17.6-9.8c3,7.5,4.7,14.3,4.9,19.5c3.8-0.5,7.7,0,11.3,1.6
				C466.1,233.2,466.6,229.3,468.1,225.7z"/>
			<path fill="none" d="M369.2,87.7c-0.9-6.8-4.4-16.2-9.9-25.8c-0.8-1.3-1.6-2.6-2.4-3.9c0.3,1.4,0.7,2.9,1.1,4.4
				C360.8,73.1,365,82.2,369.2,87.7z"/>
			<path fill="none" d="M488.4,202.5c-5.2-0.2-12-1.9-19.5-4.9c4.9,6.5,8.3,12.6,9.8,17.6c3.6-1.5,7.5-2,11.3-1.4
				C488.4,210.2,487.8,206.3,488.4,202.5z"/>
			<path fill="none" d="M442.5,242.9c-4.4-2.8-9.4-7.6-14.4-14c1,8,0.9,15-0.3,20.1c3.8,0.5,7.5,2,10.5,4.5
				C438.6,249.6,440.1,245.9,442.5,242.9z"/>
			<path fill="none" d="M377.1,235.6c-3.2,7.4-6.8,13.5-10.3,17.3c3.1,2.3,5.4,5.5,6.8,9.1c2.3-3.1,5.4-5.6,8.9-7
				C380.1,250.3,378.2,243.6,377.1,235.6z"/>
			<path fill="none" d="M403,235.6c-1.1,8-3.1,14.8-5.5,19.3c3.6,1.4,6.7,3.9,8.9,7c1.4-3.6,3.7-6.8,6.8-9.1
				C409.8,249,406.2,243,403,235.6z"/>
			<path fill="none" d="M377.1,38.6c1.1-8,3.1-14.8,5.5-19.3c-3.6-1.4-6.7-3.9-8.9-7c-1.4,3.6-3.7,6.8-6.8,9.1
				C370.3,25.1,373.9,31.1,377.1,38.6z"/>
			<path fill="none" d="M274.2,160.3c3.8-3.5,9.8-7.1,17.3-10.3c-8-1.1-14.8-3.1-19.3-5.5c-1.4,3.6-3.9,6.7-7,8.9
				C268.8,154.9,271.9,157.2,274.2,160.3z"/>
			<path fill="none" d="M298.2,175.1c-8,1-15,0.9-20.1-0.3c-0.5,3.8-2,7.5-4.5,10.5c3.8,0.4,7.5,1.9,10.5,4.2
				C287,185.1,291.9,180.1,298.2,175.1z"/>
			<path fill="none" d="M272.2,129.6c4.6-2.4,11.3-4.3,19.3-5.5c-7.4-3.2-13.5-6.8-17.3-10.3c-2.3,3.1-5.5,5.4-9.1,6.8
				C268.3,122.9,270.7,126,272.2,129.6z"/>
			<path fill="none" d="M314.8,193c2.3-2.8,4.8-5.5,7.6-8.3c10-10,20.4-17.2,28.4-20.3c0.5-1.7,0.5-3.1-0.1-4.3
				c-0.8-1.3-2.3-2.1-4.5-2.4c-6.7,5.3-18,10.5-31.3,14.1c-3.2,0.9-6.4,1.6-9.5,2.2c-11.1,8.2-17.5,16.7-15,21
				C292.7,199.2,302.8,198.1,314.8,193z"/>
			<path fill="none" d="M347.3,104.7c-4.2-5.4-11.9-11.8-21.5-17.4c-1.3-0.8-2.7-1.5-4-2.2c1,1.1,2,2.2,3.1,3.3
				C332.8,96.2,340.9,102,347.3,104.7z"/>
			<path fill="none" d="M347.7,170c-6.4,2.7-14.5,8.4-22.3,16.3c-1.1,1.1-2.1,2.2-3.2,3.3c1.3-0.7,2.6-1.4,3.9-2.2
				C335.8,181.8,343.5,175.4,347.7,170z"/>
			<path fill="none" d="M278.1,99.3c5.1-1.1,12.1-1.3,20.1-0.3c-6.4-5-11.2-10-14-14.4c-3,2.4-6.7,3.8-10.5,4.2
				C276.1,91.9,277.7,95.5,278.1,99.3z"/>
			<path fill="none" d="M501.9,174.8c-5.1,1.1-12.1,1.3-20.1,0.3c6.4,5,11.2,10,14,14.4c3-2.4,6.7-3.8,10.5-4.2
				C504,182.3,502.4,178.7,501.9,174.8z"/>
			<path fill="none" d="M290,79.7c-2.4,4.1,3.5,12.3,13.9,20.2c3.5,0.6,7.2,1.4,11,2.4c13.7,3.7,25.2,9.1,31.8,14.5
				c1.7-0.4,3-1.1,3.6-2.2c0.8-1.3,0.7-3.1-0.1-5.1c-7.9-3.2-18.1-10.3-27.8-20.1c-2.4-2.4-4.6-4.8-6.6-7.2
				C303.1,76.7,292.5,75.4,290,79.7z"/>
			<path fill="none" d="M432.7,169.5c4.2,5.4,11.9,11.8,21.5,17.4c1.3,0.8,2.7,1.5,4,2.2c-1-1.1-2-2.2-3.1-3.3
				C447.3,177.9,439.1,172.1,432.7,169.5z"/>
			<path fill="none" d="M357.6,179.8c-5.4,4.2-11.8,11.9-17.4,21.5c-0.8,1.3-1.5,2.7-2.2,4c1.1-1,2.2-2,3.3-3.1
				C349.2,194.3,355,186.2,357.6,179.8z"/>
			<path fill="none" d="M422.9,179.4c2.7,6.4,8.4,14.5,16.3,22.3c1.1,1.1,2.2,2.1,3.3,3.2c-0.7-1.3-1.4-2.6-2.2-3.9
				C434.8,191.3,428.4,183.6,422.9,179.4z"/>
			<path fill="none" d="M490.1,194.4c2.4-4.1-3.5-12.3-13.9-20.2c-3.5-0.6-7.2-1.4-11-2.4c-13.7-3.7-25.2-9.1-31.8-14.5
				c-1.7,0.4-3,1.1-3.6,2.2c-0.8,1.3-0.7,3.1,0.1,5.1c7.9,3.2,18.1,10.3,27.8,20.1c2.4,2.4,4.6,4.8,6.6,7.2
				C476.9,197.4,487.6,198.7,490.1,194.4z"/>
			<path fill="none" d="M410.8,186.5c0.9,6.8,4.4,16.2,9.9,25.8c0.8,1.3,1.6,2.6,2.4,3.9c-0.3-1.4-0.7-2.9-1.1-4.4
				C419.2,201.1,415,191.9,410.8,186.5z"/>
			<path fill="none" d="M383.3,190.2c-2.6,6.4-4.3,16.2-4.3,27.3c0,1.6,0,3.1,0.1,4.6c0.4-1.4,0.9-2.9,1.3-4.4
				C383.3,207.1,384.2,197.1,383.3,190.2z"/>
			<path fill="none" d="M397.3,190.2c-0.9,6.8,0.1,16.8,2.9,27.5c0.4,1.5,0.8,3,1.3,4.4c0.1-1.5,0.1-3,0.1-4.5
				C401.7,206.4,400,196.5,397.3,190.2z"/>
			<path fill="none" d="M357.1,94.7c-2.7-6.4-8.4-14.5-16.3-22.3c-1.1-1.1-2.2-2.1-3.3-3.2c0.7,1.3,1.4,2.6,2.2,3.9
				C345.3,82.8,351.7,90.5,357.1,94.7z"/>
			<path fill="#FFFFFF" d="M535.1,156.2c7.8-3,13.4-10.4,13.4-19.1s-5.5-16.1-13.4-19.1c6.8-4.9,10.2-13.5,8-21.9
				c-2.3-8.4-9.5-14.1-17.9-15c5.3-6.5,6.4-15.7,2-23.2c-4.3-7.5-12.9-11.2-21.1-9.9c3.4-7.6,2.1-16.8-4.1-23s-15.3-7.5-23-4.1
				c1.3-8.3-2.3-16.8-9.9-21.1c-7.5-4.3-16.7-3.3-23.2,2c-0.9-8.3-6.6-15.6-15-17.9c-8.4-2.3-17,1.2-21.9,8
				c-3-7.8-10.4-13.4-19.1-13.4c-8.7,0-16.1,5.5-19.1,13.4c-4.9-6.8-13.5-10.2-21.9-8c-8.4,2.3-14.1,9.5-15,17.9
				c-6.5-5.3-15.7-6.4-23.2-2c-7.5,4.3-11.2,12.9-9.9,21.1c-7.6-3.4-16.8-2.1-23,4.1s-7.5,15.3-4.1,23c-8.3-1.3-16.8,2.3-21.1,9.9
				c-4.3,7.5-3.3,16.7,2,23.2c-8.3,0.9-15.6,6.6-17.9,15c-2.3,8.4,1.2,17,8,21.9c-7.8,3-13.4,10.4-13.4,19.1s5.5,16.1,13.4,19.1
				c-6.8,4.9-10.2,13.5-8,21.9c2.3,8.4,9.5,14.1,17.9,15c-5.3,6.5-6.4,15.7-2,23.2c4.3,7.5,12.9,11.2,21.1,9.9
				c-3.4,7.6-2.1,16.8,4.1,23c6.1,6.1,15.3,7.5,23,4.1c-1.3,8.3,2.3,16.8,9.9,21.1c7.5,4.3,16.7,3.3,23.2-2
				c0.9,8.3,6.6,15.6,15,17.9s17-1.2,21.9-8c3,7.8,10.4,13.4,19.1,13.4c8.7,0,16.1-5.5,19.1-13.4c4.9,6.8,13.5,10.2,21.9,8
				s14.1-9.5,15-17.9c6.5,5.3,15.7,6.4,23.2,2c7.5-4.3,11.2-12.9,9.9-21.1c7.6,3.4,16.8,2.1,23-4.1c6.1-6.1,7.5-15.3,4.1-23
				c8.3,1.3,16.8-2.3,21.1-9.9c4.3-7.5,3.3-16.7-2-23.2c8.3-0.9,15.6-6.6,17.9-15S541.9,161.1,535.1,156.2z M471.8,218.4
				c-3.5,3.5-13.4-0.5-24.2-9.1c-1.4-2.8-2.9-5.7-4.6-8.7c-6.9-11.9-14.9-21.5-21.7-26.6c-0.3-2.1,0.1-3.8,1.2-4.9
				c0.9-0.9,2.3-1.3,4.1-1.2c5,6.9,14.7,15.1,27,22.2c3.4,1.9,6.7,3.7,10,5.2C471.6,205.6,475.2,215,471.8,218.4z M448,236.8
				c-4.3,2.5-12.9-4-21-15c-0.6-3.1-1.3-6.3-2.2-9.5c-3.6-13.3-8.8-24.6-14.1-31.3c0.3-2.1,1.1-3.7,2.4-4.5c1.1-0.7,2.6-0.7,4.3-0.1
				c3.1,8,10.3,18.4,20.3,28.4c2.7,2.7,5.5,5.3,8.3,7.6C451,224.3,452.1,234.4,448,236.8z M420.2,248.4c-4.8,1.3-11.4-7.1-16.4-20
				c0.2-3.1,0.4-6.4,0.4-9.8c0-13.8-2.1-26-5.5-33.9c0.8-2,2-3.3,3.5-3.7c1.3-0.3,2.7,0,4.2,0.9c0.9,8.5,5.2,20.5,12.3,32.7
				c1.9,3.4,4,6.5,6,9.5C426.4,237.2,424.8,247.1,420.2,248.4z M390.4,252.4c-5,0-9.2-9.8-10.7-23.5c1-3,2-6.1,2.9-9.4
				c3.6-13.3,4.7-25.7,3.5-34.2c1.3-1.7,2.8-2.6,4.3-2.6c1.3,0,2.6,0.7,3.8,2c-1.3,8.4-0.3,21.1,3.4,34.8c1,3.8,2.1,7.3,3.4,10.7
				C399.2,243.2,395.1,252.4,390.4,252.4z M360.5,248.5c-4.8-1.3-6.3-11.9-4.2-25.5c1.8-2.6,3.5-5.4,5.2-8.3
				c6.9-11.9,11.2-23.6,12.2-32.1c1.7-1.3,3.4-1.8,4.9-1.4c1.3,0.3,2.3,1.4,3.1,2.9c-3.5,7.8-5.7,20.3-5.7,34.5
				c0,3.9,0.2,7.7,0.5,11.2C371.5,242,365.1,249.8,360.5,248.5z M332.7,237.1c-4.3-2.5-3-13.1,2.5-25.7c2.4-2,4.8-4.3,7.2-6.6
				c9.8-9.8,16.9-19.9,20.1-27.8c2-0.8,3.8-0.9,5.1-0.1c1.1,0.7,1.9,1.9,2.2,3.6c-5.4,6.6-10.8,18.2-14.5,31.8
				c-1,3.7-1.8,7.4-2.4,11C344.9,233.6,336.8,239.5,332.7,237.1z M317.8,194.6c2.8-1.4,5.7-2.9,8.7-4.6
				c11.9-6.9,21.5-14.9,26.6-21.7c2.1-0.3,3.8,0.1,4.9,1.2c0.9,0.9,1.3,2.3,1.2,4.1c-6.9,5-15.1,14.7-22.2,27
				c-1.9,3.4-3.7,6.7-5.2,10c-10.3,8-19.7,11.6-23.1,8.2C305.2,215.3,309.2,205.4,317.8,194.6z M308.3,55.8
				c3.5-3.5,13.4,0.5,24.2,9.1c1.4,2.8,2.9,5.7,4.6,8.7c6.9,11.9,14.9,21.5,21.7,26.6c0.3,2.1-0.1,3.8-1.2,4.9
				c-0.9,0.9-2.3,1.3-4.1,1.2c-5-6.9-14.7-15.1-27-22.2c-3.4-1.9-6.7-3.7-10-5.2C308.5,68.5,304.9,59.2,308.3,55.8z M332.1,37.4
				c4.3-2.5,12.9,4,21,15c0.6,3.1,1.3,6.3,2.2,9.5c3.6,13.3,8.8,24.6,14.1,31.3c-0.3,2.1-1.1,3.7-2.4,4.5c-1.1,0.7-2.6,0.7-4.3,0.1
				c-3.1-8-10.3-18.4-20.3-28.4c-2.7-2.7-5.5-5.3-8.3-7.6C329,49.8,327.9,39.8,332.1,37.4z M359.9,25.8c4.8-1.3,11.4,7.1,16.4,20
				c-0.2,3.1-0.4,6.4-0.4,9.8c0,13.8,2.1,26,5.5,33.9c-0.8,2-2,3.3-3.5,3.7c-1.3,0.3-2.7,0-4.2-0.9c-0.9-8.5-5.2-20.5-12.3-32.7
				c-1.9-3.4-4-6.5-6-9.5C353.7,37,355.2,27,359.9,25.8z M389.7,21.8c5,0,9.2,9.8,10.7,23.5c-1,3-2,6.1-2.9,9.4
				c-3.6,13.3-4.7,25.7-3.5,34.2c-1.3,1.7-2.8,2.6-4.3,2.6c-1.3,0-2.6-0.7-3.8-2c1.3-8.4,0.3-21.1-3.4-34.8c-1-3.8-2.1-7.3-3.4-10.7
				C380.8,31,384.9,21.8,389.7,21.8z M419.6,25.6c4.8,1.3,6.3,11.9,4.2,25.5c-1.8,2.6-3.5,5.4-5.2,8.3
				c-6.9,11.9-11.2,23.6-12.2,32.1c-1.7,1.3-3.4,1.8-4.9,1.4c-1.3-0.3-2.3-1.4-3.1-2.9c3.5-7.8,5.7-20.3,5.7-34.5
				c0-3.9-0.2-7.7-0.5-11.2C408.6,32.2,414.9,24.4,419.6,25.6z M447.4,37c4.3,2.5,3,13.1-2.5,25.7c-2.4,2-4.8,4.3-7.2,6.6
				c-9.8,9.8-16.9,19.9-20.1,27.8c-2,0.8-3.8,0.9-5.1,0.1c-1.1-0.7-1.9-1.9-2.2-3.6c5.4-6.6,10.8-18.2,14.5-31.8
				c1-3.7,1.8-7.4,2.4-11C435.1,40.6,443.3,34.7,447.4,37z M462.2,79.5c-2.8,1.4-5.7,2.9-8.7,4.6C441.6,91,432.1,99,427,105.8
				c-2.1,0.3-3.8-0.1-4.9-1.2c-0.9-0.9-1.3-2.3-1.2-4.1c6.9-5,15.1-14.7,22.2-27c1.9-3.4,3.7-6.7,5.2-10c10.3-8,19.7-11.6,23.1-8.2
				C474.8,58.8,470.8,68.7,462.2,79.5z M507.9,129.6c-4.6-2.4-11.3-4.3-19.3-5.5c7.4-3.2,13.5-6.8,17.3-10.3
				c2.3,3.1,5.5,5.4,9.1,6.8C511.8,122.9,509.3,126,507.9,129.6z M467.7,165.6c-11.9-6.9-23.6-11.2-32.1-12.2
				c-1.3-1.7-1.8-3.4-1.4-4.9c0.3-1.3,1.4-2.3,2.9-3.1c7.8,3.5,20.3,5.7,34.5,5.7c3.9,0,7.7-0.2,11.2-0.5
				c12.1,4.9,19.9,11.3,18.7,15.9c-1.3,4.8-11.9,6.3-25.5,4.2C473.4,169,470.6,167.3,467.7,165.6z M469.4,169.6
				c-1.5-0.3-3-0.7-4.5-1.1c-10.7-2.9-19.8-7-25.3-11.2c6.8,0.9,16.2,4.4,25.9,9.9C466.9,168,468.1,168.8,469.4,169.6z M423.8,163
				c-2.8-0.4-5,0.1-6.4,1.5c-1.4,1.4-1.8,3.6-1.5,6.4c-2.6-1.1-4.8-1.2-6.5-0.2c-1.7,1-2.7,3-3.1,5.8c-2.2-1.7-4.3-2.4-6.2-1.9
				c-1.9,0.5-3.4,2.2-4.5,4.8c-1.7-2.2-3.6-3.4-5.5-3.4s-3.8,1.2-5.5,3.4c-1.1-2.6-2.6-4.2-4.5-4.8c-1.9-0.5-4,0.2-6.2,1.9
				c-0.4-2.8-1.4-4.8-3.1-5.8c-1.7-1-3.9-0.9-6.5,0.2c0.4-2.8-0.1-5-1.5-6.4c-1.4-1.4-3.6-1.8-6.4-1.5c1.1-2.6,1.2-4.8,0.2-6.5
				c-1-1.7-3-2.7-5.8-3.1c1.7-2.2,2.4-4.3,1.9-6.2c-0.5-1.9-2.2-3.4-4.8-4.5c2.2-1.7,3.4-3.6,3.4-5.5c0-2-1.2-3.8-3.4-5.5
				c2.6-1.1,4.2-2.6,4.8-4.5c0.5-1.9-0.2-4-1.9-6.2c2.8-0.4,4.8-1.4,5.8-3.1c1-1.7,0.9-3.9-0.2-6.5c2.8,0.4,5-0.1,6.4-1.5
				c1.4-1.4,1.8-3.6,1.5-6.4c2.6,1.1,4.8,1.2,6.5,0.2c1.7-1,2.7-3,3.1-5.8c2.2,1.7,4.3,2.4,6.2,1.9c1.9-0.5,3.4-2.2,4.5-4.8
				c1.7,2.2,3.6,3.4,5.5,3.4s3.8-1.2,5.5-3.4c1.1,2.6,2.6,4.2,4.5,4.8c1.9,0.5,4-0.2,6.2-1.9c0.4,2.8,1.4,4.8,3.1,5.8
				c1.7,1,3.9,0.9,6.5-0.2c-0.4,2.8,0.1,5,1.5,6.4c1.4,1.4,3.6,1.8,6.4,1.5c-1.1,2.6-1.2,4.8-0.2,6.5c1,1.7,3,2.7,5.8,3.1
				c-1.7,2.2-2.4,4.3-1.9,6.2c0.5,1.9,2.2,3.4,4.8,4.5c-2.2,1.7-3.4,3.6-3.4,5.5c0,2,1.2,3.8,3.4,5.5c-2.6,1.1-4.2,2.6-4.8,4.5
				c-0.5,1.9,0.2,4,1.9,6.2c-2.8,0.4-4.8,1.4-5.8,3.1C422.6,158.1,422.7,160.4,423.8,163z M312.3,165.6c-3.4,1.9-6.5,4-9.5,6
				c-13,1.8-22.9,0.2-24.1-4.4c-1.3-4.8,7.1-11.4,20-16.4c3.1,0.2,6.4,0.4,9.8,0.4c13.8,0,26-2.1,33.9-5.5c2,0.8,3.3,2,3.7,3.5
				c0.3,1.3,0,2.7-0.9,4.2C336.6,154.2,324.6,158.5,312.3,165.6z M340.6,157.9c-5.5,4.2-14.6,8.4-25.3,11.3
				c-1.5,0.4-2.9,0.7-4.4,1.1c1.3-0.8,2.6-1.6,3.9-2.4C324.4,162.3,333.8,158.8,340.6,157.9z M312.3,108.5
				c11.9,6.9,23.6,11.2,32.1,12.2c1.3,1.7,1.8,3.4,1.4,4.9c-0.3,1.3-1.4,2.3-2.9,3.1c-7.8-3.5-20.3-5.7-34.5-5.7
				c-3.9,0-7.7,0.2-11.2,0.5c-12.1-4.9-19.9-11.3-18.7-15.9c1.3-4.8,11.9-6.3,25.5-4.2C306.7,105.1,309.4,106.8,312.3,108.5z
				 M310.7,104.6c1.5,0.3,3,0.7,4.5,1.1c10.7,2.9,19.8,7,25.3,11.2c-6.8-0.9-16.2-4.4-25.9-9.9C313.2,106.1,311.9,105.4,310.7,104.6
				z M309.6,126.1c11.1,0,20.9,1.7,27.3,4.3c-6.8,0.9-16.8,0-27.6-2.9c-1.5-0.4-2.9-0.8-4.4-1.3C306.4,126.1,308,126.1,309.6,126.1z
				 M307.6,129.6c13.3,3.6,25.7,4.7,34.2,3.5c1.7,1.3,2.6,2.8,2.6,4.3c0,1.3-0.7,2.6-2,3.8c-8.4-1.3-21.1-0.3-34.8,3.4
				c-3.8,1-7.3,2.1-10.7,3.4c-13-1.6-22.2-5.7-22.2-10.5c0-5,9.8-9.2,23.5-10.7C301.2,127.8,304.3,128.7,307.6,129.6z M309.5,147.3
				c10.7-2.9,20.6-3.8,27.5-2.9c-6.4,2.6-16.3,4.3-27.4,4.3c-1.5,0-3.1,0-4.5-0.1C306.5,148.1,307.9,147.7,309.5,147.3z
				 M467.7,108.5c3.4-1.9,6.5-4,9.5-6c13-1.8,22.9-0.2,24.1,4.4c1.3,4.8-7.1,11.4-20,16.4c-3.1-0.2-6.4-0.4-9.8-0.4
				c-13.8,0-26,2.1-33.9,5.5c-2-0.8-3.3-2-3.7-3.5c-0.3-1.3,0-2.7,0.9-4.2C443.5,119.9,455.5,115.6,467.7,108.5z M439.4,116.3
				c5.5-4.2,14.6-8.4,25.3-11.3c1.5-0.4,2.9-0.7,4.4-1.1c-1.3,0.8-2.6,1.6-3.9,2.4C455.6,111.9,446.3,115.3,439.4,116.3z M475,125.5
				c-1.4,0.5-2.9,0.9-4.4,1.3c-10.7,2.9-20.6,3.8-27.5,2.9c6.4-2.6,16.3-4.3,27.4-4.3C472,125.4,473.6,125.5,475,125.5z M470.5,148
				c-11.1,0-20.9-1.7-27.3-4.3c6.8-0.9,16.8,0,27.6,2.9c1.5,0.4,2.9,0.8,4.4,1.3C473.6,148,472.1,148,470.5,148z M472.5,144.5
				c-13.3-3.6-25.7-4.7-34.2-3.5c-1.7-1.3-2.6-2.8-2.6-4.3c0-1.3,0.7-2.6,2-3.8c8.4,1.3,21.1,0.3,34.8-3.4c3.8-1,7.3-2.1,10.7-3.4
				c13,1.6,22.2,5.7,22.2,10.5c0,5-9.8,9.2-23.5,10.7C478.8,146.4,475.7,145.4,472.5,144.5z M501.9,99.3c-5.1-1.1-12.1-1.3-20.1-0.3
				c6.4-5,11.2-10,14-14.4c3,2.4,6.7,3.8,10.5,4.2C504,91.9,502.4,95.5,501.9,99.3z M489.7,79.1c2.5,4.3-4,12.9-15,21
				c-3.1,0.6-6.3,1.3-9.5,2.2c-13.3,3.6-24.6,8.8-31.3,14.1c-2.1-0.3-3.7-1.1-4.5-2.4c-0.7-1.1-0.7-2.6-0.1-4.3
				c8-3.1,18.4-10.3,28.4-20.3c2.7-2.7,5.3-5.5,7.6-8.3C477.3,76.1,487.3,75,489.7,79.1z M454.7,87.9c-7.8,7.8-16,13.6-22.3,16.3
				c4.2-5.5,11.9-11.9,21.5-17.4c1.3-0.8,2.6-1.5,3.9-2.2C456.8,85.7,455.8,86.8,454.7,87.9z M439.8,72.9
				c-5.5,9.6-11.9,17.3-17.4,21.5c2.7-6.4,8.4-14.5,16.3-22.4c1.1-1.1,2.2-2.1,3.3-3.1C441.3,70.2,440.5,71.5,439.8,72.9z
				 M421.5,62.2c-2.9,10.7-7,19.8-11.2,25.3c0.9-6.8,4.4-16.2,9.9-25.9c0.8-1.3,1.5-2.6,2.3-3.8C422.2,59.2,421.9,60.7,421.5,62.2z
				 M401,56.6c0,11.1-1.7,20.9-4.3,27.3c-0.9-6.8,0-16.8,2.9-27.6c0.4-1.5,0.8-2.9,1.3-4.4C401,53.5,401,55,401,56.6z M379.8,56.5
				c2.9,10.7,3.8,20.6,2.9,27.5c-2.6-6.4-4.3-16.3-4.3-27.4c0-1.5,0-3.1,0.1-4.5C379,53.5,379.4,55,379.8,56.5z M359.3,61.9
				c5.5,9.6,9,19,9.9,25.8c-4.2-5.5-8.4-14.6-11.3-25.3c-0.4-1.5-0.7-2.9-1.1-4.4C357.7,59.2,358.5,60.5,359.3,61.9z M340.9,72.4
				c7.8,7.8,13.6,16,16.3,22.3c-5.5-4.2-11.9-11.9-17.4-21.5c-0.8-1.3-1.5-2.6-2.2-3.9C338.7,70.3,339.8,71.3,340.9,72.4z
				 M325.8,87.3c9.6,5.5,17.3,11.9,21.5,17.4c-6.4-2.7-14.5-8.4-22.4-16.3c-1.1-1.1-2.1-2.2-3.1-3.3
				C323.1,85.8,324.5,86.6,325.8,87.3z M322.4,89.4c9.8,9.8,19.9,16.9,27.8,20.1c0.8,2,0.9,3.8,0.1,5.1c-0.7,1.1-1.9,1.9-3.6,2.2
				c-6.6-5.4-18.2-10.8-31.8-14.5c-3.7-1-7.4-1.8-11-2.4c-10.4-7.9-16.3-16-13.9-20.2c2.5-4.3,13.1-3,25.7,2.5
				C317.8,84.6,320,87,322.4,89.4z M284.2,84.6c2.8,4.4,7.6,9.4,14,14.4c-8-1-15-0.9-20.1,0.3c-0.5-3.8-2-7.5-4.5-10.5
				C277.5,88.5,281.2,87,284.2,84.6z M274.2,113.8c3.8,3.5,9.8,7.1,17.3,10.3c-8,1.1-14.8,3.1-19.3,5.5c-1.4-3.6-3.9-6.7-7-8.9
				C268.8,119.2,271.9,116.9,274.2,113.8z M272.2,144.6c4.6,2.4,11.3,4.3,19.3,5.5c-7.4,3.2-13.5,6.8-17.3,10.3
				c-2.3-3.1-5.5-5.4-9.1-6.8C268.3,151.2,270.7,148.2,272.2,144.6z M278.1,174.8c5.1,1.1,12.1,1.3,20.1,0.3c-6.4,5-11.2,10-14,14.4
				c-3-2.4-6.7-3.8-10.5-4.2C276.1,182.3,277.7,178.7,278.1,174.8z M290.3,195c-2.5-4.3,4-12.9,15-21c3.1-0.6,6.3-1.3,9.5-2.2
				c13.3-3.6,24.6-8.8,31.3-14.1c2.1,0.3,3.7,1.1,4.5,2.4c0.7,1.1,0.7,2.6,0.1,4.3c-8,3.1-18.4,10.3-28.4,20.3
				c-2.7,2.7-5.3,5.5-7.6,8.3C302.8,198.1,292.7,199.2,290.3,195z M325.4,186.2c7.8-7.8,16-13.6,22.3-16.3
				c-4.2,5.5-11.9,11.9-21.5,17.4c-1.3,0.8-2.6,1.5-3.9,2.2C323.2,188.4,324.3,187.3,325.4,186.2z M340.3,201.3
				c5.5-9.6,11.9-17.3,17.4-21.5c-2.7,6.4-8.4,14.5-16.3,22.4c-1.1,1.1-2.2,2.1-3.3,3.1C338.8,204,339.5,202.6,340.3,201.3z
				 M358.6,212c2.9-10.7,7-19.8,11.2-25.3c-0.9,6.8-4.4,16.2-9.9,25.9c-0.8,1.3-1.5,2.6-2.3,3.8C357.8,214.9,358.2,213.5,358.6,212z
				 M379.1,217.5c0-11.1,1.7-20.9,4.3-27.3c0.9,6.8,0,16.8-2.9,27.6c-0.4,1.5-0.8,2.9-1.3,4.4C379.1,220.7,379.1,219.1,379.1,217.5z
				 M400.3,217.6c-2.9-10.7-3.8-20.6-2.9-27.5c2.6,6.4,4.3,16.3,4.3,27.4c0,1.5,0,3.1-0.1,4.5C401.1,220.6,400.7,219.2,400.3,217.6z
				 M420.8,212.2c-5.5-9.6-9-19-9.9-25.8c4.2,5.5,8.4,14.6,11.3,25.3c0.4,1.5,0.7,2.9,1.1,4.4C422.3,214.9,421.5,213.6,420.8,212.2z
				 M439.2,201.7c-7.8-7.8-13.6-16-16.3-22.3c5.5,4.2,11.9,11.9,17.4,21.5c0.8,1.3,1.5,2.6,2.2,3.9
				C441.4,203.9,440.3,202.8,439.2,201.7z M454.2,186.8c-9.6-5.5-17.3-11.9-21.5-17.4c6.4,2.7,14.5,8.4,22.4,16.3
				c1.1,1.1,2.1,2.2,3.1,3.3C456.9,188.3,455.6,187.6,454.2,186.8z M457.7,184.7c-9.8-9.8-19.9-16.9-27.8-20.1
				c-0.8-2-0.9-3.8-0.1-5.1c0.7-1.1,1.9-1.9,3.6-2.2c6.6,5.4,18.2,10.8,31.8,14.5c3.7,1,7.4,1.8,11,2.4c10.4,7.9,16.3,16,13.9,20.2
				c-2.5,4.3-13.1,3-25.7-2.5C462.3,189.5,460.1,187.1,457.7,184.7z M495.8,189.5c-2.8-4.4-7.6-9.4-14-14.4c8,1,15,0.9,20.1-0.3
				c0.5,3.8,2,7.5,4.5,10.5C502.6,185.7,498.9,187.1,495.8,189.5z M505.8,160.3c-3.8-3.5-9.8-7.1-17.3-10.3c8-1.1,14.8-3.1,19.3-5.5
				c1.4,3.6,3.9,6.7,7,8.9C511.3,154.9,508.1,157.2,505.8,160.3z M490,60.4c-1.6,3.5-2.1,7.4-1.6,11.3c-5.2,0.2-12,1.9-19.5,4.9
				c4.9-6.5,8.3-12.6,9.8-17.6C482.2,60.5,486.1,61,490,60.4z M466.7,37.1c-0.6,3.8-0.1,7.7,1.4,11.3c-5,1.5-11.1,4.9-17.6,9.8
				c3-7.5,4.7-14.3,4.9-19.5C459.3,39.3,463.2,38.7,466.7,37.1z M438.2,20.7c0.4,3.8,1.9,7.5,4.2,10.5c-4.4,2.8-9.4,7.6-14.4,14
				c1-8,0.9-15-0.3-20.1C431.6,24.7,435.2,23.1,438.2,20.7z M406.5,12.2c1.4,3.6,3.7,6.8,6.8,9.1c-3.5,3.8-7.1,9.8-10.3,17.3
				c-1.1-8-3.1-14.8-5.5-19.3C401.1,17.8,404.2,15.3,406.5,12.2z M373.6,12.2c2.3,3.1,5.4,5.6,8.9,7c-2.4,4.6-4.3,11.3-5.5,19.3
				c-3.2-7.4-6.8-13.5-10.3-17.3C369.9,19,372.2,15.8,373.6,12.2z M352.3,25.2c-1.1,5.1-1.3,12.1-0.3,20.1c-5-6.4-10-11.2-14.4-14
				c2.4-3,3.8-6.7,4.2-10.5C344.8,23.1,348.4,24.7,352.3,25.2z M324.6,38.7c0.2,5.2,1.9,12,4.9,19.5c-6.5-4.9-12.6-8.3-17.6-9.8
				c1.5-3.6,2-7.5,1.4-11.3C316.9,38.7,320.8,39.3,324.6,38.7z M301.4,59c1.5,5,4.9,11.1,9.8,17.6c-7.5-3-14.3-4.7-19.5-4.9
				c0.5-3.8,0-7.7-1.6-11.3C293.9,61,297.8,60.5,301.4,59z M290.1,213.7c1.6-3.5,2.1-7.4,1.6-11.3c5.2-0.2,12-1.9,19.5-4.9
				c-4.9,6.5-8.3,12.6-9.8,17.6C297.8,213.6,293.9,213.1,290.1,213.7z M313.4,237c0.6-3.8,0.1-7.7-1.4-11.3c5-1.5,11.1-4.9,17.6-9.8
				c-3,7.5-4.7,14.3-4.9,19.5C320.8,234.9,316.9,235.4,313.4,237z M341.8,253.4c-0.4-3.8-1.9-7.5-4.2-10.5c4.4-2.8,9.4-7.6,14.4-14
				c-1,8-0.9,15,0.3,20.1C348.4,249.4,344.8,251,341.8,253.4z M373.6,261.9c-1.4-3.6-3.7-6.8-6.8-9.1c3.5-3.8,7.1-9.8,10.3-17.3
				c1.1,8,3.1,14.8,5.5,19.3C378.9,256.4,375.9,258.8,373.6,261.9z M406.5,261.9c-2.3-3.1-5.4-5.6-8.9-7c2.4-4.6,4.3-11.3,5.5-19.3
				c3.2,7.4,6.8,13.5,10.3,17.3C410.2,255.2,407.9,258.3,406.5,261.9z M427.8,249c1.1-5.1,1.3-12.1,0.3-20.1c5,6.4,10,11.2,14.4,14
				c-2.4,3-3.8,6.7-4.2,10.5C435.2,251,431.6,249.4,427.8,249z M455.4,235.4c-0.2-5.2-1.9-12-4.9-19.5c6.5,4.9,12.6,8.3,17.6,9.8
				c-1.5,3.6-2,7.5-1.4,11.3C463.2,235.4,459.3,234.9,455.4,235.4z M478.7,215.1c-1.5-5-4.9-11.1-9.8-17.6c7.5,3,14.3,4.7,19.5,4.9
				c-0.5,3.8,0,7.7,1.6,11.3C486.1,213.1,482.2,213.6,478.7,215.1z"/>
		</g>
		<g>
			<path fill="#999999" d="M404,0.4c-0.3,1.9,0.9,3.8,2.9,4.4c2.1,0.6,4.3-0.7,4.8-2.8s-0.7-4.3-2.8-4.8c-2.1-0.6-4.3,0.7-4.8,2.8
				c0,0.1,0,0.2,0,0.2l-14-14L376,0.3L390,14.4L404,0.4z"/>
			<path fill="#999999" d="M368.1,1.5C368.4,3.4,370,5,372,5c2.2,0,4-1.8,4-4s-1.8-4-4-4s-4,1.8-4,4c0,0.1,0,0.2,0,0.2L351-8.6
				L341,8.6l17.2,10L368.1,1.5z"/>
			<path fill="#999999" d="M333.8,11.8c0.7,1.8,2.7,2.9,4.7,2.3c2.1-0.6,3.4-2.7,2.8-4.8c-0.6-2.1-2.7-3.4-4.8-2.8
				c-2.1,0.6-3.4,2.7-2.8,4.8c0,0.1,0.1,0.1,0.1,0.2l-19.1-5.1l-5.2,19.2l19.2,5.2L333.8,11.8z"/>
			<path fill="#999999" d="M264.5,80.9l19.2-5.2l-5.1-19c1.6,1.2,3.8,1.1,5.2-0.3c1.5-1.5,1.5-3.7,0-5.2c-0.2-0.2-0.5-0.2-0.7-0.2
				H303V30.6c2,1.6,3.5,2,5.2,1c1.9-1.1,2.6-3.5,1.5-5.4c-1.1-1.9-3.5-2.9-5.4-1.8c-1.8,1.1-2.5,4.5-1.5,4.5H281v21
				c0-0.6-2.4-0.4-3.5,0.8c-1.5,1.5-1.1,4.1,0.4,5.6c0.1,0.1,0.3,0.1,0.4,0.1l-19,5.1L264.5,80.9z"/>
			<path fill="#999999" d="M254.3,115.3l17.2-10l-9.8-17.1c1.8,0.8,3.9,0.1,4.9-1.7c1.1-1.9,0.4-4.3-1.4-5.4
				c-1.9-1.1-4.3-0.4-5.4,1.4c-1.1,1.9-0.4,4.3,1.4,5.4c0.1,0,0.1,0.1,0.2,0.1L244.3,98L254.3,115.3z"/>
			<path fill="#999999" d="M267.3,137.1l-13.9-13.9c1.9,0.3,3.8-0.9,4.4-2.9c0.6-2.1-0.7-4.3-2.8-4.8c-2.1-0.6-4.3,0.7-4.8,2.8
				c-0.6,2.1,0.7,4.3,2.8,4.8c0.1,0,0.2,0,0.2,0l-14,14l14.1,14.1L267.3,137.1z"/>
			<path fill="#999999" d="M261.5,186.1l10-17.2l-17.1-9.8c1.9-0.2,3.5-1.9,3.5-3.9c0-2.2-1.8-4-4-4c-2.2,0-4,1.8-4,4
				c0,2.2,1.8,4,4,4c0.1,0,0.2,0,0.2,0l-9.9,17.1L261.5,186.1z"/>
			<path fill="#999999" d="M278.6,217.7l5.2-19.2l-19-5.1c1.8-0.7,2.9-2.7,2.3-4.7c-0.6-2.1-2.7-3.4-4.8-2.8
				c-2.1,0.6-3.4,2.7-2.8,4.8c0.6,2.1,2.7,3.4,4.8,2.8c0.1,0,0.1-0.1,0.2-0.1l-5.1,19.1L278.6,217.7z"/>
			<path fill="#999999" d="M328.7,243.3l-19,5.1c1.2-1.6,1.1-3.8-0.3-5.2c-1.5-1.5-4.1-1.5-5.7,0c-0.2,0.2-0.7,0.5-0.7,0.7v-20
				h-19.4c1.6-2,2-3.4,1-5.2c-1.1-1.9-3.5-2.6-5.4-1.5c-1.9,1.1-3.4,3.5-2.3,5.4c1.1,1.8,4.1,2.5,4.1,1.5V244h21.9
				c-0.6,0-0.4,3.4,0.8,4.6c1.5,1.5,4.1,1.7,5.6,0.1c0.1-0.1,0.1-0.1,0.1-0.1l5.1,19.1l19.2-5.1L328.7,243.3z"/>
			<path fill="#999999" d="M341.2,265.4c0.8-1.8,0.1-3.9-1.7-4.9c-1.9-1.1-4.3-0.4-5.4,1.4c-1.1,1.9-0.4,4.3,1.4,5.4
				c1.9,1.1,4.3,0.4,5.4-1.4c0-0.1,0.1-0.1,0.1-0.2l9.9,17.1l17.2-10l-10-17.2L341.2,265.4z"/>
			<path fill="#999999" d="M376.1,273.7c0.3-1.9-0.9-3.8-2.9-4.4c-2.1-0.6-4.3,0.7-4.8,2.8c-0.6,2.1,0.7,4.3,2.8,4.8
				c2.1,0.6,4.3-0.7,4.8-2.8c0-0.1,0-0.2,0-0.2l14,14l14.1-14.1L390,259.8L376.1,273.7z"/>
			<path fill="#999999" d="M411.9,272.7c-0.2-1.9-1.9-3.5-3.9-3.5c-2.2,0-4,1.8-4,4s1.8,4,4,4c2.2,0,4-1.8,4-4c0-0.1,0-0.2,0-0.2
				l17.1,9.9l10-17.2l-17.2-10L411.9,272.7z"/>
			<path fill="#999999" d="M446.3,262.4c-0.7-1.8-2.7-2.9-4.7-2.3c-2.1,0.6-3.4,2.7-2.8,4.8c0.6,2.1,2.7,3.4,4.8,2.8
				s3.4-2.7,2.8-4.8c0-0.1-0.1-0.1-0.1-0.2l19.1,5.1l5.2-19.2l-19.2-5.2L446.3,262.4z"/>
			<path fill="#999999" d="M515.5,193.3l-19.2,5.2l5.1,19c-1.6-1.2-3.8-1.1-5.2,0.3c-1.5,1.5-1.5,4.1,0,5.6c0.2,0.2,0.5,0.6,0.7,0.6
				H477v19.5c-4-1.6-3.5-2-5.2-1c-1.9,1.1-2.6,3.5-1.5,5.4c1.1,1.9,3.5,2.3,5.4,1.2c1.8-1.1,2.5-5.1,1.5-5.1H497v-19.8
				c0,0.6,3.4,0.4,4.6-0.8c1.5-1.5,1.6-4.1,0.1-5.6c-0.1-0.1-0.1-0.1-0.1-0.1l19.1-5.1L515.5,193.3z"/>
			<path fill="#999999" d="M525.8,158.9l-17.2,10l9.8,17.1c-1.8-0.8-3.9-0.1-4.9,1.7c-1.1,1.9-0.4,4.3,1.4,5.4
				c1.9,1.1,4.3,0.4,5.4-1.4c1.1-1.9,0.4-4.3-1.4-5.4c-0.1,0-0.1-0.1-0.2-0.1l17.1-9.9L525.8,158.9z"/>
			<path fill="#999999" d="M526.8,123l-14.1,14.1l13.9,13.9c-1.9-0.3-3.8,0.9-4.4,2.9c-0.6,2.1,0.7,4.3,2.8,4.8
				c2.1,0.6,4.3-0.7,4.8-2.8c0.6-2.1-0.7-4.3-2.8-4.8c-0.1,0-0.2,0-0.2,0l14-14L526.8,123z"/>
			<path fill="#999999" d="M518.5,88.1l-10,17.2l17.1,9.8c-1.9,0.2-3.5,1.9-3.5,3.9c0,2.2,1.8,4,4,4c2.2,0,4-1.8,4-4s-1.8-4-4-4
				c-0.1,0-0.2,0-0.2,0l9.9-17.1L518.5,88.1z"/>
			<path fill="#999999" d="M501.4,56.5l-5.2,19.2l19,5.1c-1.8,0.7-2.9,2.7-2.3,4.7c0.6,2.1,2.7,3.4,4.8,2.8c2.1-0.6,3.4-2.7,2.8-4.8
				c-0.6-2.1-2.7-3.4-4.8-2.8c-0.1,0-0.1,0.1-0.2,0.1l5.1-19.1L501.4,56.5z"/>
			<path fill="#999999" d="M451.4,30.8l19-5.1c-1.2,1.6-1.1,3.8,0.3,5.2c1.5,1.5,4.1,1.5,5.7,0c0.2-0.2,0.6-0.5,0.6-0.7V51h19.5
				c-1.6,1-2,3-1,4.8c1.1,1.9,3.5,2.4,5.4,1.3c1.9-1.1,2.3-3.6,1.2-5.5c-1.1-1.8-5.1-2.6-5.1-1.6V29h-19.9c0.6,0,0.4-2.8-0.8-4
				c-1.5-1.5-4.1-1.4-5.6,0.2c-0.1,0.1-0.1,0.2-0.1,0.3l-5.1-19l-19.2,5.2L451.4,30.8z"/>
			<path fill="#999999" d="M438.8,8.7c-0.8,1.8-0.1,3.9,1.7,4.9c1.9,1.1,4.3,0.4,5.4-1.4c1.1-1.9,0.4-4.3-1.4-5.4
				c-1.9-1.1-4.3-0.4-5.4,1.4c0,0.1-0.1,0.1-0.1,0.2l-9.9-17.1l-17.2,10l10,17.2L438.8,8.7z"/>
		</g>
		<path fill="#FFFFFF" d="M390,41.1c-53,0-95.9,43-95.9,95.9S337,233,390,233s95.9-43,95.9-95.9S443,41.1,390,41.1z M390,229.9
			c-51.3,0-92.9-41.6-92.9-92.9s41.6-92.9,92.9-92.9s92.9,41.6,92.9,92.9S441.3,229.9,390,229.9z"/>
		<polygon fill="#FFFFFF" points="390,98.1 392.6,117.8 400.1,99.5 397.5,119.1 409.5,103.4 401.9,121.6 417.6,109.5 405.5,125.2 
			423.7,117.6 408,129.6 427.6,127 409.3,134.5 429,137.1 409.3,139.6 427.6,147.1 408,144.5 423.7,156.5 405.5,148.9 417.6,164.6 
			401.9,152.5 409.5,170.8 397.5,155.1 400.1,174.7 392.6,156.4 390,176 387.5,156.4 380,174.7 382.6,155.1 370.6,170.8 
			378.2,152.5 362.5,164.6 374.6,148.9 356.3,156.5 372,144.5 352.4,147.1 370.7,139.6 351.1,137.1 370.7,134.5 352.4,127 
			372,129.6 356.3,117.6 374.6,125.2 362.5,109.5 378.2,121.6 370.6,103.4 382.6,119.1 380,99.5 387.5,117.8 		"/>
	</g>
	<path fill="#FFFFFF" d="M114.3,167.8c-6.6,7.7-13.2,20.2-15.7,39.9l0.8,21.4c0,0,9.1-8.2,11.5-14.8c2.5-6.6,14-30.5,21.4-42
		c0,0,2.5,46.2-14.8,74.2c-17.3,28-74.2,93.2-52.8,151.7l-19,0.8c0,0-25.6,4.1-10.7,12.4c14.8,8.2,26.4,6.6,30.5,3.3
		c0,0,15.7,18.1,32.1,19.8c16.5,1.7,20.6,6.6,20.6,6.6s9.9,4.1,14-1.7c0,0-1.6-7.4-6.6-14c0,0-4.1,0,2.5-1.6
		c6.6-1.7,27.2,0,32.1,7.4c0,0,3.3,3.3,6.6-6.6c3.3-9.9-7.4-9.9-23.9-10.7c0,0,0.8-4.1,12.4-21.4c11.5-17.3,19-37.9,23.9-57.7
		c4.9-19.8,12.4-53.6,20.6-63.5l15.7,6.6c0,0,5.8,5,4.1,12.4c-1.7,7.4,2.5,14,5.8,6.6c3.3-7.4,15.7-37.1-14.8-42
		c0,0-0.8-7.4,1.7-15.7c2.5-8.2,4.9-23.9-3.3-34.6c-8.2-10.7-15.7-37.9-9.9-46.2c5.8-8.2,23.9-45.3,19.8-55.2
		c0,0-53.6-28.9-77.5,35.4c0,0-32.1-2.5-42.9,30.5L114.3,167.8z"/>
	<text transform="matrix(1 0 0 1 247.7715 354.9103)"><tspan x="0" y="0" fill="#FFFFFF" font-family="'mplus-1p-bold'" font-size="46.2567">usamimi.</tspan><tspan x="-53.2" y="80.9" fill="#FFFFFF" font-family="'mplus-1p-bold'" font-size="46.2567">technology</tspan></text>
</g>
</svg>
